HIERARCHY
ROOT Hips
{
    OFFSET 0.000000 0.000000 0.000000
    CHANNELS 6 Xposition Yposition Zposition Zrotation Xrotation Yrotation
    JOINT Spine
    {
        OFFSET -0.000000 14.517291 0.000000
        CHANNELS 3 Zrotation Xrotation Yrotation
        JOINT Spine1
        {
            OFFSET -0.000000 37.558300 0.000000
            CHANNELS 3 Zrotation Xrotation Yrotation
            JOINT Neck
            {
                OFFSET -0.000000 37.404057 3.400369
                CHANNELS 3 Zrotation Xrotation Yrotation
                JOINT Head
                {
                    OFFSET -0.000000 24.785618 -3.540803
                    CHANNELS 3 Zrotation Xrotation Yrotation
                    End Site
                    {
                        OFFSET -0.000000 35.408028 0.000000
                    }
                }
            }
            JOINT LeftShoulder
            {
                OFFSET 6.992933 33.973492 -0.192664
                CHANNELS 3 Zrotation Xrotation Yrotation
                JOINT LeftArm
                {
                    OFFSET 21.527611 0.000000 0.000000
                    CHANNELS 3 Zrotation Xrotation Yrotation
                    JOINT LeftForeArm
                    {
                        OFFSET 56.353916 0.000000 0.000000
                        CHANNELS 3 Zrotation Xrotation Yrotation
                        JOINT LeftHand
                        {
                            OFFSET 47.774071 0.000000 0.000000
                            CHANNELS 3 Zrotation Xrotation Yrotation
                            End Site
                            {
                                OFFSET 26.556021 0.000000 0.000000
                            }
                        }
                    }
                }
            }
            JOINT RightShoulder
            {
                OFFSET -7.065357 33.973492 -0.192664
                CHANNELS 3 Zrotation Xrotation Yrotation
                JOINT RightArm
                {
                    OFFSET -21.527611 0.000000 0.000000
                    CHANNELS 3 Zrotation Xrotation Yrotation
                    JOINT RightForeArm
                    {
                        OFFSET -56.353916 0.000000 0.000000
                        CHANNELS 3 Zrotation Xrotation Yrotation
                        JOINT RightHand
                        {
                            OFFSET -47.774071 0.000000 0.000000
                            CHANNELS 3 Zrotation Xrotation Yrotation
                            End Site
                            {
                                OFFSET -26.556021 0.000000 0.000000
                            }
                        }
                    }
                }
            }
        }
    }
    JOINT LeftUpLeg
    {
        OFFSET 17.704014 0.000000 0.000000
        CHANNELS 3 Zrotation Xrotation Yrotation
        JOINT LeftLeg
        {
            OFFSET -0.000000 -81.181816 0.000000
            CHANNELS 3 Zrotation Xrotation Yrotation
            JOINT LeftFoot
            {
                OFFSET -0.000000 -62.821102 0.000000
                CHANNELS 3 Zrotation Xrotation Yrotation
                JOINT LeftToeBase
                {
                    OFFSET -0.000000 -11.507608 26.556021
                    CHANNELS 3 Zrotation Xrotation Yrotation
                    End Site
                    {
                        OFFSET -0.000000 0.000000 7.081605
                    }
                }
            }
        }
    }
    JOINT RightUpLeg
    {
        OFFSET -17.704014 0.000000 0.000000
        CHANNELS 3 Zrotation Xrotation Yrotation
        JOINT RightLeg
        {
            OFFSET -0.000000 -81.181816 0.000000
            CHANNELS 3 Zrotation Xrotation Yrotation
            JOINT RightFoot
            {
                OFFSET -0.000000 -62.821102 0.000000
                CHANNELS 3 Zrotation Xrotation Yrotation
                JOINT RightToeBase
                {
                    OFFSET -0.000000 -11.507608 26.556021
                    CHANNELS 3 Zrotation Xrotation Yrotation
                    End Site
                    {
                        OFFSET -0.000000 0.000000 7.081605
                    }
                }
            }
        }
    }
}
MOTION
Frames:    8
Frame Time:    0.008333
-24.735603    160.356094    -22.930626    -11.968512    -21.222467    46.789925    2.632303    6.351628    -1.008727    8.803535    7.480259    -0.871357    28.648125    -4.195033    -0.065585    -9.298994    -5.845443    -7.288306    12.345041    7.220364    -19.165855    -34.752632    18.339006    -35.646206    -11.440599    -16.621277    -119.271637    0.891398    -34.406403    -4.585315    7.164898    -1.521107    -4.609425    17.689037    -6.740386    33.327221    -15.637777    3.059388    54.825069    -13.071879    6.789280    37.276997    31.035381    -7.424929    5.650535    -3.962852    47.379780    -18.082897    4.706447    -28.311430    39.218525    0.000000    0.000000    0.000000    -90.213860    -39.703281    -53.554970    5.708857    13.545014    -9.310011    14.211955    16.333487    -26.342398    0.000000    0.000000    0.000000    
-24.712507    160.280167    -22.935228    -11.974064    -21.240156    46.796185    2.617398    6.415041    -1.009922    8.830546    7.460413    -0.871930    28.787886    -4.185215    -0.031637    -9.440855    -5.901740    -7.309937    12.393443    7.206297    -19.235888    -34.716583    18.262133    -35.677654    -11.431628    -16.683207    -119.208603    0.819030    -34.423573    -4.659522    7.210240    -1.530011    -4.587346    17.633926    -6.805705    33.317760    -15.614498    3.087493    54.752754    -13.112605    6.775576    37.299488    31.076557    -7.480012    5.721898    -3.944005    47.545856    -18.184334    4.765405    -28.402912    39.242474    0.000000    0.000000    0.000000    -90.236679    -39.697739    -53.524281    5.722040    13.550034    -9.327378    14.195224    16.379589    -26.300116    0.000000    0.000000    0.000000    
-24.685753    160.203247    -22.932339    -11.977466    -21.278013    46.808807    2.622503    6.476598    -1.010316    8.834897    7.458931    -0.872010    28.931379    -4.165872    -0.005281    -9.559836    -5.973380    -7.334666    12.477557    7.221870    -19.294817    -34.664986    18.144609    -35.764519    -11.167645    -16.779387    -119.073593    0.774611    -34.074829    -4.660131    7.277973    -1.493304    -4.596252    17.557810    -6.831869    33.347939    -15.664688    3.040252    54.624668    -13.085238    6.736130    37.346073    31.120657    -7.531255    5.804782    -3.857580    47.733574    -18.324863    4.796741    -28.496075    39.235722    0.000000    0.000000    0.000000    -90.233513    -39.682571    -53.476414    5.745163    13.553689    -9.316149    14.178980    16.397474    -26.278160    0.000000    0.000000    0.000000    
-24.660686    160.119858    -22.923454    -11.990193    -21.325556    46.813057    2.636936    6.537549    -1.009819    8.840273    7.468151    -0.872304    29.087061    -4.187952    0.038909    -9.695560    -6.001446    -7.353881    12.555495    7.228510    -19.347881    -34.587315    18.086884    -35.872375    -11.160336    -16.935040    -119.009323    0.763273    -34.177467    -4.652801    7.332256    -1.505653    -4.599745    17.496349    -6.807539    33.364708    -15.733834    2.974759    54.490097    -13.101943    6.671651    37.397541    31.184145    -7.587924    5.870037    -3.798205    47.938538    -18.422583    4.807125    -28.608194    39.222588    0.000000    0.000000    0.000000    -90.220627    -39.684048    -53.468719    5.738206    13.578078    -9.285244    14.171148    16.398689    -26.214172    0.000000    0.000000    0.000000    
-24.631437    160.032974    -22.911303    -11.998708    -21.391821    46.822094    2.652591    6.610867    -1.011284    8.873610    7.484608    -0.875697    29.191597    -4.147256    0.069414    -9.780416    -6.138294    -7.360003    12.610359    7.210913    -19.394756    -34.500206    18.094177    -35.975182    -11.062778    -17.191832    -118.938377    0.701952    -34.232979    -4.691442    7.346508    -1.533930    -4.594250    17.460550    -6.769884    33.363213    -15.811296    2.908283    54.352928    -13.124377    6.601203    37.500561    31.254499    -7.644063    5.934007    -3.701972    48.174690    -18.589764    4.816593    -28.729895    39.236496    0.000000    0.000000    0.000000    -90.183685    -39.674171    -53.414974    5.740620    13.589494    -9.251019    14.143173    16.413101    -26.154360    0.000000    0.000000    0.000000    
-24.606249    159.940048    -22.904150    -12.016862    -21.439137    46.834148    2.669510    6.679862    -1.016970    8.887403    7.485105    -0.877970    29.340628    -4.151739    0.123843    -9.913114    -6.216727    -7.366599    12.674691    7.194282    -19.442871    -34.427128    18.052422    -36.068783    -11.008759    -17.380428    -118.856018    0.599691    -34.288479    -4.778545    7.396803    -1.556072    -4.602205    17.415314    -6.802257    33.382057    -15.778203    2.863260    54.266087    -13.102126    6.534304    37.478851    31.318035    -7.729646    5.917943    -3.718825    48.412228    -18.580299    4.824260    -28.849491    39.228287    0.000000    0.000000    0.000000    -90.179161    -39.655113    -53.444988    5.714187    13.617402    -9.187364    14.083150    16.453022    -25.970242    0.000000    0.000000    0.000000    
-24.572203    159.848328    -22.884113    -12.015281    -21.513132    46.854790    2.687909    6.758135    -1.018361    8.910984    7.515525    -0.881505    29.424683    -4.198938    0.159946    -9.968136    -6.246372    -7.371465    12.728589    7.184719    -19.484339    -34.334080    17.955805    -36.189980    -10.999766    -17.498060    -118.760757    0.543179    -34.345436    -4.844813    7.444305    -1.586541    -4.606626    17.374506    -6.843866    33.386326    -15.770875    2.835253    54.186668    -13.115440    6.485553    37.468880    31.393494    -7.779052    5.864783    -3.782189    48.642281    -18.575808    4.889474    -28.948231    39.274635    0.000000    0.000000    0.000000    -90.136192    -39.636940    -53.429218    5.712325    13.651212    -9.094480    14.103985    16.417631    -25.951385    0.000000    0.000000    0.000000    
-24.537823    159.746246    -22.861607    -12.017977    -21.557055    46.861122    2.675184    6.791772    -1.012229    8.933601    7.563559    -0.885011    29.565281    -4.202695    0.196806    -10.085591    -6.321311    -7.391498    12.796480    7.187001    -19.565117    -34.273815    17.825066    -36.272270    -10.968392    -17.592724    -118.672951    0.493140    -34.352970    -4.934391    7.520852    -1.623448    -4.586997    17.326412    -6.893075    33.381168    -15.772643    2.798298    54.074623    -13.079782    6.431703    37.552231    31.443483    -7.818448    5.821430    -3.834194    48.828140    -18.551981    4.939513    -29.077377    39.311390    0.000000    0.000000    0.000000    -90.139816    -39.628799    -53.440697    5.715910    13.666001    -9.041976    14.079692    16.439890    -25.890825    0.000000    0.000000    0.000000    
